# xmcd CD database file
# Copyright (C) 1993-1998 Ti Kan
#
# Track frame offsets:
#  182
#  14172
#  31375
#  43295
#  52082
#  67695
#  78782
#  95522
#  118637
#  131220
#  150767
#  170002
#
# Disc length: 3249 seconds
#
# Revision: 1
# Processed by: cddbd v1.4b41PL1 Copyright (c) Steve Scherf et al.
# Submitted via: CDWizzard Release:4.35
#
DISCID=9b0caf0c
DTITLE=Alfredo Zitarrosa - Alfredo Zitarrosa
DYEAR=1900
DGENRE=
TTITLE0=Donia Soledad
TTITLE1=Si te vas
TTITLE2=Milonga para una ninia
TTITLE3=Pa'l que se va
TTITLE4=Violin de Becho
TTITLE5=Milonga de ojos dorados
TTITLE6=Stefanie
TTITLE7=Adagio a mi pais
TTITLE8=Negra chau
TTITLE9=Sin caballo y en Montiel
TTITLE10=Milonga del alma
TTITLE11=Guitarra negra
EXTD=
EXTT0=
EXTT1=
EXTT2=
EXTT3=
EXTT4=
EXTT5=
EXTT6=
EXTT7=
EXTT8=
EXTT9=
EXTT10=
EXTT11=
PLAYORDER=
